<mxfile host="65bd71144e">
    <diagram id="vYY0wZgh9Mw6Mro5w5tX" name="Page-1">
        <mxGraphModel dx="1592" dy="889" grid="1" gridSize="10" guides="1" tooltips="1" connect="1" arrows="1" fold="1" page="1" pageScale="1" pageWidth="827" pageHeight="1169" math="0" shadow="0">
            <root>
                <mxCell id="0"/>
                <mxCell id="1" parent="0"/>
                <mxCell id="8" value="" style="whiteSpace=wrap;html=1;aspect=fixed;dashed=1;fillColor=#eeeeee;strokeColor=#36393d;" parent="1" vertex="1">
                    <mxGeometry x="40" y="30" width="770" height="770" as="geometry"/>
                </mxCell>
                <mxCell id="7" value="" style="rounded=0;whiteSpace=wrap;html=1;dashed=1;strokeColor=#36393d;fillColor=none;" parent="1" vertex="1">
                    <mxGeometry x="350" y="80" width="426" height="520" as="geometry"/>
                </mxCell>
                <mxCell id="6" value="&lt;span style=&quot;&quot;&gt;&lt;font color=&quot;#000000&quot; style=&quot;font-size: 20px&quot;&gt;AI Model&lt;/font&gt;&lt;/span&gt;" style="aspect=fixed;html=1;points=[];align=center;image;fontSize=12;image=img/lib/mscae/Cognitive_Services.svg;labelBackgroundColor=none;" parent="1" vertex="1">
                    <mxGeometry x="138" y="410" width="130" height="78" as="geometry"/>
                </mxCell>
                <mxCell id="17" style="edgeStyle=none;html=1;exitX=0;exitY=0.75;exitDx=0;exitDy=0;exitPerimeter=0;entryX=1.007;entryY=0.606;entryDx=0;entryDy=0;entryPerimeter=0;dashed=1;labelBackgroundColor=none;fontSize=20;fontColor=#000000;strokeColor=#141414;strokeWidth=4;" parent="1" source="9" target="6" edge="1">
                    <mxGeometry relative="1" as="geometry">
                        <Array as="points">
                            <mxPoint x="400" y="229"/>
                            <mxPoint x="400" y="457"/>
                        </Array>
                    </mxGeometry>
                </mxCell>
                <mxCell id="19" style="edgeStyle=none;html=1;entryX=1;entryY=0.5;entryDx=0;entryDy=0;entryPerimeter=0;dashed=1;labelBackgroundColor=none;fontSize=20;fontColor=#000000;strokeColor=#141414;strokeWidth=4;" parent="1" source="9" target="10" edge="1">
                    <mxGeometry relative="1" as="geometry">
                        <Array as="points">
                            <mxPoint x="740" y="209"/>
                            <mxPoint x="740" y="359"/>
                        </Array>
                    </mxGeometry>
                </mxCell>
                <mxCell id="9" value="S3" style="points=[[0,0,0],[0.25,0,0],[0.5,0,0],[0.75,0,0],[1,0,0],[0,1,0],[0.25,1,0],[0.5,1,0],[0.75,1,0],[1,1,0],[0,0.25,0],[0,0.5,0],[0,0.75,0],[1,0.25,0],[1,0.5,0],[1,0.75,0]];outlineConnect=0;fontColor=#232F3E;gradientColor=#60A337;gradientDirection=north;fillColor=#277116;strokeColor=#ffffff;dashed=0;verticalLabelPosition=bottom;verticalAlign=top;align=center;html=1;fontSize=20;fontStyle=0;aspect=fixed;shape=mxgraph.aws4.resourceIcon;resIcon=mxgraph.aws4.s3;" parent="1" vertex="1">
                    <mxGeometry x="620" y="170" width="78" height="78" as="geometry"/>
                </mxCell>
                <mxCell id="18" style="edgeStyle=none;html=1;exitX=0.5;exitY=1;exitDx=0;exitDy=0;exitPerimeter=0;entryX=1;entryY=0.5;entryDx=0;entryDy=0;entryPerimeter=0;dashed=1;labelBackgroundColor=none;fontSize=20;fontColor=#000000;strokeColor=#141414;strokeWidth=4;" parent="1" source="10" target="11" edge="1">
                    <mxGeometry relative="1" as="geometry">
                        <Array as="points">
                            <mxPoint x="659" y="489"/>
                        </Array>
                    </mxGeometry>
                </mxCell>
                <mxCell id="10" value="Athena" style="points=[[0,0,0],[0.25,0,0],[0.5,0,0],[0.75,0,0],[1,0,0],[0,1,0],[0.25,1,0],[0.5,1,0],[0.75,1,0],[1,1,0],[0,0.25,0],[0,0.5,0],[0,0.75,0],[1,0.25,0],[1,0.5,0],[1,0.75,0]];outlineConnect=0;fontColor=#232F3E;gradientColor=#945DF2;gradientDirection=north;fillColor=#5A30B5;strokeColor=#ffffff;dashed=0;verticalLabelPosition=bottom;verticalAlign=top;align=center;html=1;fontSize=20;fontStyle=0;aspect=fixed;shape=mxgraph.aws4.resourceIcon;resIcon=mxgraph.aws4.athena;" parent="1" vertex="1">
                    <mxGeometry x="620" y="320" width="78" height="78" as="geometry"/>
                </mxCell>
                <mxCell id="14" value="" style="rounded=0;whiteSpace=wrap;html=1;dashed=1;strokeColor=#36393d;fillColor=none;" parent="1" vertex="1">
                    <mxGeometry x="88" y="150" width="230" height="390" as="geometry"/>
                </mxCell>
                <mxCell id="11" value="Quicksight" style="points=[[0,0,0],[0.25,0,0],[0.5,0,0],[0.75,0,0],[1,0,0],[0,1,0],[0.25,1,0],[0.5,1,0],[0.75,1,0],[1,1,0],[0,0.25,0],[0,0.5,0],[0,0.75,0],[1,0.25,0],[1,0.5,0],[1,0.75,0]];outlineConnect=0;fontColor=#232F3E;gradientColor=#945DF2;gradientDirection=north;fillColor=#5A30B5;strokeColor=#ffffff;dashed=0;verticalLabelPosition=bottom;verticalAlign=top;align=center;html=1;fontSize=20;fontStyle=0;aspect=fixed;shape=mxgraph.aws4.resourceIcon;resIcon=mxgraph.aws4.quicksight;" parent="1" vertex="1">
                    <mxGeometry x="480" y="450" width="78" height="78" as="geometry"/>
                </mxCell>
                <mxCell id="13" value="Notebook" style="outlineConnect=0;dashed=0;verticalLabelPosition=bottom;verticalAlign=top;align=center;html=1;fontSize=20;fontStyle=0;aspect=fixed;pointerEvents=1;shape=mxgraph.aws4.notebook;labelBackgroundColor=none;fontColor=#030303;fillColor=#141414;strokeColor=#000000;" parent="1" vertex="1">
                    <mxGeometry x="60" y="72" width="68" height="78" as="geometry"/>
                </mxCell>
                <mxCell id="21" style="edgeStyle=none;html=1;entryX=0;entryY=0.5;entryDx=0;entryDy=0;entryPerimeter=0;dashed=1;labelBackgroundColor=none;fontSize=20;fontColor=#000000;strokeColor=#141414;strokeWidth=4;" parent="1" source="20" target="9" edge="1">
                    <mxGeometry relative="1" as="geometry"/>
                </mxCell>
                <mxCell id="20" value="Data" style="html=1;verticalLabelPosition=bottom;align=center;labelBackgroundColor=#ffffff;verticalAlign=top;strokeWidth=2;strokeColor=#0080F0;shadow=0;dashed=0;shape=mxgraph.ios7.icons.data;fontSize=20;fontColor=#000000;fillColor=none;gradientColor=none;" parent="1" vertex="1">
                    <mxGeometry x="162" y="159" width="82" height="100" as="geometry"/>
                </mxCell>
                <mxCell id="22" value="" style="outlineConnect=0;dashed=0;verticalLabelPosition=bottom;verticalAlign=top;align=center;html=1;shape=mxgraph.aws3.cloud_2;fillColor=#F58534;gradientColor=none;labelBackgroundColor=none;fontSize=20;fontColor=#030303;" parent="1" vertex="1">
                    <mxGeometry x="330" y="50" width="75" height="75" as="geometry"/>
                </mxCell>
            </root>
        </mxGraphModel>
    </diagram>
</mxfile>
